<?xml version="1.0" encoding="UTF-8"?>
<svg version="1.1" xmlns="http://www.w3.org/2000/svg" width="512" height="512">
    <path
        d="M0 0 C15.42851148 14.25994619 26.25154839 32.86810011 32.2421875 52.92578125 C32.43707764 53.57772461 32.63196777 54.22966797 32.83276367 54.90136719 C41.3744932 85.33386674 36.51492974 117.3603651 21.59814453 144.86743164 C18.08712788 151.08056233 13.9652079 156.73032096 9.4296875 162.23828125 C8.67042969 163.16253906 7.91117188 164.08679688 7.12890625 165.0390625 C-12.90038937 188.21535055 -42.22126754 201.80941701 -72.5703125 204.23828125 C-106.28317771 206.00738801 -136.3977068 194.98720954 -161.6328125 172.86328125 C-182.55117008 153.65320249 -197.10490821 126.38070638 -198.77514648 97.72387695 C-198.87346481 93.97602256 -198.89973143 90.23737223 -198.8828125 86.48828125 C-198.88032501 85.82742523 -198.87783752 85.16656921 -198.87527466 84.48568726 C-198.6894342 52.53319621 -186.4279025 24.48709895 -164.03222656 1.67724609 C-118.53653104 -43.10425514 -46.62012804 -41.6361105 0 0 Z M-145.1953125 29.86328125 C-162.5357179 50.02654334 -167.09629683 73.23161217 -165.5703125 99.23828125 C-164.90619924 104.46099907 -163.41721971 109.31521384 -161.5703125 114.23828125 C-161.20808594 115.27597656 -160.84585938 116.31367188 -160.47265625 117.3828125 C-152.26551008 139.05524256 -135.33081667 154.75495119 -114.71484375 164.4765625 C-94.85426152 173.29984732 -71.98315589 173.6797598 -51.67089844 166.23754883 C-44.42695312 163.40042935 -37.87265537 159.80464944 -31.5703125 155.23828125 C-30.66796875 154.59375 -29.765625 153.94921875 -28.8359375 153.28515625 C-11.33634438 139.93800896 -1.39834832 120.68478941 3.01171875 99.43359375 C6.09786072 75.84047105 0.11173935 53.48428884 -13.75 34.20703125 C-27.96179263 16.12776718 -47.51308736 5.4073957 -70.0703125 1.65625 C-98.70338534 -1.76310133 -125.37685832 9.15179447 -145.1953125 29.86328125 Z "
        fill="#4E6EDF" transform="translate(326.5703125,57.76171875)" />
    <path
        d="M0 0 C1.572987 1.34197076 3.13565057 2.69614099 4.6875 4.0625 C5.49445313 4.72636719 6.30140625 5.39023437 7.1328125 6.07421875 C28.3216136 24.04152501 40.60228718 50.3482501 44.4375 77.5625 C44.55228327 79.06042164 44.63031051 80.5612759 44.6875 82.0625 C44.7390625 83.26648438 44.790625 84.47046875 44.84375 85.7109375 C45.70007684 115.73567511 35.60052678 144.76527823 15.171875 166.953125 C-6.28676658 189.48497814 -34.54530649 202.39646468 -65.73071289 203.41625977 C-97.91029721 203.74458436 -126.38897009 191.1102074 -149.4375 168.984375 C-163.03868837 155.43773686 -172.43078665 137.53760214 -177.3125 119.0625 C-177.62960937 117.87269531 -177.94671875 116.68289063 -178.2734375 115.45703125 C-184.68485294 87.07622437 -179.67390104 56.2318129 -164.50390625 31.4375 C-147.9144854 5.39955082 -123.43430216 -12.23128164 -93.5390625 -19.90625 C-61.75487935 -26.94769308 -25.8351288 -20.30479654 0 0 Z M-127.33984375 36.67578125 C-142.44066463 54.94627939 -149.42570427 76.49178182 -147.3125 100.0625 C-144.68706001 121.41699019 -133.18490342 140.63221604 -116.37109375 153.84765625 C-98.44331009 166.82984442 -77.27557105 172.71386279 -55.23779297 169.23974609 C-47.46324772 167.85665838 -40.41349291 165.52857905 -33.3125 162.0625 C-32.40113281 161.64355469 -31.48976563 161.22460938 -30.55078125 160.79296875 C-22.58777081 156.85122178 -16.53987094 151.26363201 -10.3125 145.0625 C-9.5803125 144.36511719 -8.848125 143.66773438 -8.09375 142.94921875 C6.28102154 128.26071211 12.11075833 106.93541235 11.8984375 86.87109375 C10.71633193 65.52752104 1.25771917 45.69757087 -14.3125 31.0625 C-48.19113391 2.62826677 -96.54670698 4.49157876 -127.33984375 36.67578125 Z "
        fill="#4E6EDF" transform="translate(441.3125,282.9375)" />
    <path
        d="M0 0 C1.97419922 -0.04253906 1.97419922 -0.04253906 3.98828125 -0.0859375 C9.99048229 0.66196083 14.34775423 2.69172967 18.125 7.4375 C20.54632037 11.9895823 21.02986361 15.23954591 20.6875 20.375 C18.86692998 26.24128117 16.55864644 28.92460461 11.6875 32.375 C8.23755491 33.5249817 5.0294021 33.653248 1.43359375 33.8046875 C-0.06235938 33.87616564 -1.55828954 33.94812589 -3.05419922 34.02050781 C-4.2331778 34.07591736 -4.2331778 34.07591736 -5.43597412 34.13244629 C-61.1224362 36.81636626 -128.10706701 45.91335201 -168.83203125 88.3828125 C-177.61169238 98.9737108 -181.68825494 109.8486436 -181.5078125 123.56640625 C-181.50356766 124.81247902 -181.50356766 124.81247902 -181.49923706 126.08372498 C-181.48816291 128.70180505 -181.4630836 131.31952571 -181.4375 133.9375 C-181.42745365 135.72720855 -181.41833072 137.51692254 -181.41015625 139.30664062 C-181.38826565 143.66289604 -181.35382633 148.01888738 -181.3125 152.375 C-180.33882162 152.37738835 -179.36514324 152.37977671 -178.36195946 152.38223743 C-154.67610219 152.44101793 -130.99034676 152.51689179 -107.30460167 152.61071491 C-95.85037531 152.65569077 -84.39618017 152.69510134 -72.94189453 152.72143555 C-62.95896822 152.74440108 -52.97614055 152.777783 -42.99329245 152.82370156 C-37.70688194 152.84765318 -32.42056923 152.86636928 -27.13410568 152.87261391 C-22.15842959 152.87865594 -17.18300383 152.89862403 -12.20742035 152.92927551 C-10.38131828 152.93806985 -8.55518352 152.94177543 -6.72906113 152.94000816 C-4.23480509 152.93835643 -1.74131309 152.95504575 0.75283813 152.97627258 C1.47464126 152.97142501 2.19644439 152.96657743 2.94012034 152.96158296 C8.25468647 153.03617193 12.32669805 154.27214791 16.33203125 157.83984375 C20.375 162.9375 20.375 162.9375 20.6875 166.375 C20.790625 167.4475 20.89375 168.52 21 169.625 C20.6122687 174.27777558 19.38361535 177.57066545 16.6875 181.375 C10.89564824 186.08087956 6.30333596 186.52414834 -0.93936157 186.51544189 C-2.09771706 186.51989858 -2.09771706 186.51989858 -3.27947366 186.5244453 C-5.86943221 186.53312292 -8.45934448 186.53463977 -11.04931641 186.53613281 C-12.90557962 186.54076174 -14.76184188 186.5457865 -16.61810303 186.55117798 C-21.66383087 186.5642989 -26.70954541 186.57074662 -31.75528765 186.57518864 C-34.90926193 186.57812054 -38.06323259 186.58222562 -41.21720505 186.58669281 C-51.08968801 186.60036843 -60.96216267 186.61003414 -70.83465445 186.6138947 C-82.22220874 186.61837237 -93.60964281 186.6359065 -104.99716055 186.6648953 C-113.80412116 186.68653458 -122.61104801 186.69660022 -131.41803491 186.69793582 C-136.675482 186.69898246 -141.93281609 186.70485997 -147.19023514 186.72275543 C-152.13965746 186.73927438 -157.08888233 186.74137305 -162.03832245 186.73261642 C-163.84987035 186.73184803 -165.66142903 186.73616255 -167.47294998 186.74607468 C-181.59935044 186.81880501 -194.20426447 185.70141273 -205.1328125 175.7109375 C-213.21845214 166.81267076 -215.62579229 156.42139891 -215.61328125 144.6796875 C-215.61756638 143.76978058 -215.6218515 142.85987366 -215.62626648 141.9223938 C-215.63198151 140.00458605 -215.63253102 138.08675663 -215.62817383 136.16894531 C-215.62503143 133.2789067 -215.64844777 130.38991115 -215.67382812 127.5 C-215.76840014 100.17736525 -206.93264084 79.21073618 -187.875 59.5 C-141.34171229 12.92922173 -62.46447273 1.25263876 0 0 Z "
        fill="#4E6EDF" transform="translate(241.3125,278.625)" />
    <path
        d="M0 0 C4.74383917 1.6691286 7.22222634 3.83333952 10 8 C11.79626321 11.77334835 12.25971945 14.78345887 12.29052734 18.94848633 C12.30328705 20.12353226 12.31604675 21.29857819 12.32919312 22.50923157 C12.33141876 23.77075546 12.33364441 25.03227936 12.3359375 26.33203125 C12.3425943 27.63774582 12.3492511 28.94346039 12.35610962 30.28874207 C12.36806192 33.05003159 12.37179266 35.81119621 12.37060547 38.57250977 C12.37040259 42.09298176 12.3976803 45.61264369 12.43214989 49.13292408 C12.45987804 52.51180384 12.45857109 55.89053939 12.4609375 59.26953125 C12.47530853 60.52498245 12.48967957 61.78043365 12.50448608 63.07392883 C12.46747265 70.19901568 11.9007331 74.97106624 8 81 C3.11883485 85.64305954 -0.96700606 86.35728013 -7.49609375 86.28125 C-12.45046555 85.7247527 -15.13925306 82.97706409 -18.3125 79.375 C-20.97368459 75.6296291 -21.13650709 73.57738999 -21.17700195 68.99316406 C-21.18983719 67.73135315 -21.20267242 66.46954224 -21.21589661 65.16949463 C-21.22406511 63.78487541 -21.23150863 62.40025175 -21.23828125 61.015625 C-21.24235678 60.31886406 -21.2464323 59.62210312 -21.25063133 58.90422821 C-21.27149523 55.21447547 -21.28579404 51.52475992 -21.29516602 47.83496094 C-21.3062156 44.03066089 -21.34059683 40.22694818 -21.38033772 36.42285538 C-21.40653612 33.49223778 -21.41486078 30.56175924 -21.41844749 27.63103485 C-21.42330725 26.22924596 -21.43490398 24.82746303 -21.45348549 23.42578888 C-21.47793469 21.45880821 -21.47448646 19.49154149 -21.4699707 17.52441406 C-21.47583694 16.40681702 -21.48170319 15.28921997 -21.48774719 14.13775635 C-20.70370604 9.09389319 -18.13681225 6.00147746 -14.375 2.6875 C-9.69068224 -0.64083104 -5.6276406 -0.47618497 0 0 Z "
        fill="#4E6EDF" transform="translate(378,357)" />
    <path
        d="M0 0 C1.19367188 -0.01675781 2.38734375 -0.03351563 3.6171875 -0.05078125 C9.96570516 0.6066933 14.06990363 3.5104122 18.125 8.3125 C22.30891007 14.29535512 23.14255507 20.12667296 22.125 27.3125 C20.3277216 33.49130916 16.46704831 37.82517532 11.125 41.3125 C5.04602453 44.19357795 -1.21647405 44.47163693 -7.63671875 42.4375 C-13.51070569 39.76830414 -16.67263242 36.89081771 -19.875 31.3125 C-21.87454039 25.31387882 -22.12968158 17.7225267 -19.93359375 11.75390625 C-15.19927607 3.9029531 -9.11061515 0.02938908 0 0 Z "
        fill="#4E6EDF" transform="translate(372.875,303.6875)" />
</svg>