<?xml version="1.0" standalone="no"?>
<!DOCTYPE svg PUBLIC "-//W3C//DTD SVG 20010904//EN" "http://www.w3.org/TR/2001/REC-SVG-20010904/DTD/svg10.dtd">
<svg version="1.0" xmlns="http://www.w3.org/2000/svg" width="448.000000pt" height="505.000000pt"
    viewBox="0 0 448.000000 505.000000" preserveAspectRatio="xMidYMid meet">

    <g transform="translate(0.000000,505.000000) scale(0.100000,-0.100000)" fill="#4E6EDF" stroke="none">
        <path d="M2235 4563 c-99 -11 -189 -54 -285 -134 l-70 -59 -232 0 c-215 0
-236 -2 -266 -20 -61 -37 -89 -118 -63 -182 5 -13 33 -86 61 -163 29 -77 76
-203 105 -280 92 -241 87 -220 53 -254 -17 -17 -52 -47 -79 -68 -58 -46 -285
-274 -359 -362 -115 -134 -250 -324 -349 -489 -43 -72 -151 -297 -151 -314 0
-8 -3 -18 -7 -22 -22 -22 -98 -277 -122 -411 -35 -193 -42 -434 -16 -566 37
-198 130 -366 281 -510 87 -83 238 -171 352 -204 148 -44 178 -45 1192 -45
825 0 980 2 1056 15 277 48 490 188 637 417 106 165 146 314 147 538 0 195
-22 341 -90 595 -32 118 -125 332 -220 500 -167 299 -462 652 -735 879 -38 32
-73 64 -77 71 -6 10 19 87 72 220 24 62 42 110 75 200 20 55 40 109 45 120 4
11 15 40 25 65 9 25 21 55 26 68 25 65 -2 145 -63 182 -30 18 -51 20 -269 20
l-236 0 -24 26 c-32 34 -135 107 -179 127 -73 32 -168 48 -235 40z m157 -321
c26 -15 66 -51 88 -80 62 -78 74 -82 249 -82 82 0 152 -4 155 -8 3 -5 -15 -62
-40 -128 -25 -65 -53 -139 -61 -164 -8 -25 -20 -56 -26 -70 -6 -14 -18 -45
-27 -70 l-16 -45 -434 0 -433 0 -39 105 c-22 58 -46 119 -53 135 -7 17 -20 50
-28 75 -8 25 -25 69 -36 98 -12 30 -19 58 -16 63 4 5 74 9 156 9 174 0 189 5
243 79 60 81 112 109 206 110 54 1 73 -4 112 -27z m391 -956 c83 -63 322 -292
422 -406 33 -36 122 -147 157 -195 4 -5 18 -23 31 -40 25 -31 177 -271 177
-279 0 -2 15 -31 34 -64 70 -125 140 -314 179 -487 70 -308 62 -531 -26 -700
-69 -134 -193 -244 -332 -296 -106 -39 -100 -39 -1145 -39 -1063 0 -1053 0
-1158 46 -29 13 -55 24 -57 24 -3 0 -24 12 -48 27 -138 90 -239 239 -273 403
-41 193 11 563 114 810 8 19 18 44 22 55 85 208 258 482 440 696 74 88 298
310 394 392 l79 67 486 0 c388 -1 490 -3 504 -14z" />
        <path d="M1748 2806 c-134 -49 -127 -238 11 -276 20 -5 127 -10 238 -10 227 0
256 -7 332 -75 73 -66 76 -65 -264 -65 -338 0 -342 -1 -389 -63 -41 -54 -34
-144 13 -187 44 -39 54 -40 370 -40 171 0 312 -4 315 -9 9 -15 -67 -86 -120
-112 -46 -23 -61 -24 -279 -29 -200 -4 -235 -7 -258 -23 -60 -39 -84 -125 -53
-185 8 -15 158 -170 333 -345 l319 -317 53 0 c63 0 105 20 131 63 22 36 26
106 9 140 -6 12 -88 99 -182 194 -94 95 -169 174 -167 176 3 2 41 11 84 21
206 44 366 182 438 376 l16 45 62 3 c58 3 64 6 106 47 39 40 44 49 44 90 0 92
-55 147 -154 155 l-60 5 -27 55 c-16 30 -28 60 -29 66 0 7 30 13 83 16 50 3
95 11 115 22 96 50 96 201 0 253 -30 17 -73 18 -543 20 -404 2 -518 0 -547
-11z" />
    </g>
</svg>